# xmcd
#
# Track frame offsets:
#	150
#	5356
#	20891
#	34777
#	50278
#	66955
#	89314
#	107186
#	121412
#	134731
#	147329
#	163476
#	178937
#
# Disc length: 2762 seconds
#
# Revision: 1
# Processed by: cddbd v1.5.2PL0 Copyright (c) Steve Scherf et al.
# Submitted via: audiograbber 1.83.01
#
DISCID=c30ac80d
DTITLE=Big and Rich - Comin' To Your City
DYEAR=1900
DGENRE=Country Rock
TTITLE0=Freak Paradise
TTITLE1=Comin' To Your City
TTITLE2=Soul Shaker
TTITLE3=Never Mind Me
TTITLE4=Caught Up In The Moment
TTITLE5=Leap Of Faith
TTITLE6=I Pray For You
TTITLE7=Filthy Rich
TTITLE8=Jalapeno
TTITLE9=20 Margaritas
TTITLE10=Blow My Mind
TTITLE11=Slow Motion
TTITLE12=8th Of November
EXTD=
EXTT0=
EXTT1=
EXTT2=
EXTT3=
EXTT4=
EXTT5=
EXTT6=
EXTT7=
EXTT8=
EXTT9=
EXTT10=
EXTT11=
EXTT12=
PLAYORDER=
